HIERARCHY
ROOT Pelvis
{
	OFFSET 0.000000 0.000000 0.000000
	CHANNELS 6 Xposition Yposition Zposition Zrotation Yrotation Xrotation 
	JOINT Left_hip
	{
		OFFSET 0.068973 -0.091024 -0.007589
		CHANNELS 3 Zrotation Yrotation Xrotation
		JOINT Left_knee
		{
			OFFSET 0.036482 -0.391037 -0.003979
			CHANNELS 3 Zrotation Yrotation Xrotation
			JOINT Left_ankle
			{
				OFFSET -0.012239 -0.415469 -0.043440
				CHANNELS 3 Zrotation Yrotation Xrotation
				JOINT Left_foot
				{
					OFFSET 0.023806 -0.058558 0.118702
					CHANNELS 3 Zrotation Yrotation Xrotation
					End Site
					{
						OFFSET 0.000000 0.000000 0.000000
					}
				}
			}
		}
	}
	JOINT Right_hip
	{
		OFFSET -0.066552 -0.090468 -0.003847
		CHANNELS 3 Zrotation Yrotation Xrotation
		JOINT Right_knee
		{
			OFFSET -0.042435 -0.398340 -0.006400
			CHANNELS 3 Zrotation Yrotation Xrotation
			JOINT Right_ankle
			{
				OFFSET 0.014931 -0.415421 -0.041327
				CHANNELS 3 Zrotation Yrotation Xrotation
				JOINT Right_foot
				{
					OFFSET -0.021472 -0.049410 0.121889
					CHANNELS 3 Zrotation Yrotation Xrotation
					End Site
					{
						OFFSET 0.000000 0.000000 0.000000
					}
				}
			}
		}
	}
	JOINT Spine1
	{
		OFFSET -0.002904 0.105700 -0.022855
		CHANNELS 3 Zrotation Yrotation Xrotation
		JOINT Spine2
		{
			OFFSET 0.004179 0.132554 -0.002501
			CHANNELS 3 Zrotation Yrotation Xrotation
			JOINT Spine3
			{
				OFFSET 0.001987 0.049603 0.025988
				CHANNELS 3 Zrotation Yrotation Xrotation
				JOINT Neck
				{
					OFFSET -0.003935 0.211336 -0.045638
					CHANNELS 3 Zrotation Yrotation Xrotation
					JOINT Head
					{
						OFFSET 0.003906 0.065991 0.051018
						CHANNELS 3 Zrotation Yrotation Xrotation
						End Site
						{
							OFFSET 0.000000 0.000000 0.000000
						}
					}
				}
				JOINT Left_collar
				{
					OFFSET 0.072882 0.117751 -0.036270
					CHANNELS 3 Zrotation Yrotation Xrotation
					JOINT Left_shoulder
					{
						OFFSET 0.082118 0.032630 -0.005771
						CHANNELS 3 Zrotation Yrotation Xrotation
						JOINT Left_elbow
						{
							OFFSET 0.263305 -0.015144 -0.028095
							CHANNELS 3 Zrotation Yrotation Xrotation
							JOINT Left_wrist
							{
								OFFSET 0.250741 0.010115 -0.000759
								CHANNELS 3 Zrotation Yrotation Xrotation
								JOINT Left_palm
								{
									OFFSET 0.080683 -0.009989 -0.013613
									CHANNELS 3 Zrotation Yrotation Xrotation
									End Site
									{
										OFFSET 0.000000 0.000000 0.000000
									}
								}
							}
						}
					}
				}
				JOINT Right_collar
				{
					OFFSET -0.074811 0.116132 -0.040385
					CHANNELS 3 Zrotation Yrotation Xrotation
					JOINT Right_shoulder
					{
						OFFSET -0.085089 0.032943 -0.007484
						CHANNELS 3 Zrotation Yrotation Xrotation
						JOINT Right_elbow
						{
							OFFSET -0.254763 -0.014219 -0.020321
							CHANNELS 3 Zrotation Yrotation Xrotation
							JOINT Right_wrist
							{
								OFFSET -0.256597 0.009233 -0.005063
								CHANNELS 3 Zrotation Yrotation Xrotation
								JOINT Right_palm
								{
									OFFSET -0.080528 -0.007219 -0.010379
									CHANNELS 3 Zrotation Yrotation Xrotation
									End Site
									{
										OFFSET 0.000000 0.000000 0.000000
									}
								}
							}
						}
					}
				}
			}
		}
	}
}
MOTION
Frames: 6
Frame Time: 0.100000
-1.089103 -0.473336 2.241925 168.717861 0.026116 -20.265266 15.288042 9.441466 12.173780 -4.126368 -0.741425 -11.106276 -7.724838 10.726336 6.344934 10.477959 8.208391 -3.144189 -3.091669 -9.976045 6.679540 2.205187 -5.978047 9.574703 6.910643 -11.124427 5.189270 -4.099711 4.860321 -2.447856 -4.672180 4.002737 15.541453 -3.754068 -1.699273 15.984428 -1.803834 -0.236689 2.915762 -1.417373 13.156639 25.425739 0.170340 4.551987 15.781165 -20.711680 -10.165547 7.717637 -31.978816 -8.479780 1.500916 4.404744 -31.938374 7.675837 7.709264 -3.599799 17.500420 -10.476714 -6.406831 -19.281951 22.549610 9.468623 9.667833 55.111977 1.371962 12.230475 -9.058071 40.444616 8.022684 -0.783215 4.436773 7.810395 14.115530 9.186827 -10.227509 
-1.073777 -0.469651 2.226012 168.004225 3.493311 -20.332435 15.262956 8.725113 10.557714 -3.549826 -2.405799 -12.936780 -8.691418 10.910725 9.272677 11.600266 8.778849 -3.819962 -1.650864 -7.564073 6.851268 2.910542 -3.369111 16.678036 4.322371 -10.343361 3.485381 -0.037713 3.340963 -2.655522 -4.759382 3.849905 17.534653 -4.091040 -1.740285 16.853228 -2.196822 -0.212909 2.817306 -1.589394 13.620504 25.985101 -0.202438 4.305078 13.679814 -21.292690 -10.960139 8.038238 -31.140471 -7.226376 0.793574 4.301917 -27.529982 4.910962 8.268137 -3.383926 17.386124 -10.173785 -6.060055 -20.628365 22.025124 10.686528 9.647309 55.816296 1.877071 13.358437 -10.346510 44.859720 7.919027 -2.392771 5.032155 6.067643 13.968897 8.941832 -10.394508 
-1.054069 -0.463765 2.211344 168.834112 6.231935 -23.056292 14.288474 8.014794 11.362386 -2.653568 -4.550654 -12.921068 -8.417757 11.362654 11.178302 11.522133 9.378826 -4.968738 0.492207 -7.303619 6.526603 1.825116 -4.792360 36.267008 -0.122480 -13.134125 0.706290 4.959011 2.983323 -4.266835 -5.018898 3.985672 19.921009 -4.483998 -1.101538 17.595692 -2.658050 0.089054 2.471999 -2.131188 13.670612 27.363691 -1.461311 4.216987 13.219690 -22.335578 -13.295611 8.630080 -29.757423 -5.933990 -0.565138 2.159793 -20.882066 4.156561 7.393794 -2.544897 19.051087 -8.619316 -5.406724 -22.293491 21.601984 13.845022 9.836002 54.914856 2.789605 13.811144 -11.587799 48.926944 8.340908 -2.403831 5.463120 6.530777 11.996167 8.162093 -9.433754 
-1.038173 -0.454157 2.203621 171.547991 8.378901 -23.807970 11.906121 7.341383 11.208556 -3.212186 -4.733166 -12.968251 -7.506967 10.477253 11.874475 10.221402 9.800993 -5.278303 0.907828 -6.992802 11.278972 3.391409 -0.670978 32.235542 1.935469 -9.828551 0.706613 3.583476 3.942515 -4.813365 -5.079520 4.969900 17.143993 -4.993596 -0.981928 17.139066 -3.420764 0.722711 2.467711 -1.922978 13.792642 27.476488 -2.299010 3.904001 14.822948 -22.154007 -13.097338 7.484714 -30.971471 -5.811246 -0.006716 1.338022 -17.077869 5.245653 5.402327 -1.769922 21.384050 -10.168613 -5.766090 -23.149460 20.837721 14.261311 9.030872 54.422825 4.767575 14.472530 -10.739306 50.046222 9.713252 -1.820828 5.341501 6.421620 13.849519 8.641449 -9.987831 
-1.022309 -0.441834 2.191900 175.148923 10.475996 -23.184570 8.449599 6.010295 9.137879 -4.073490 -3.531954 -12.193075 -6.970528 9.443561 11.957786 9.545286 10.263728 -5.419925 -0.399218 -6.433294 17.836322 2.189643 4.106997 17.226482 3.926752 -9.681016 -1.173117 -0.938879 5.884730 -4.095531 -4.638357 6.130842 12.649733 -5.368860 -0.876609 16.432845 -3.886610 1.480318 2.724556 -2.129931 13.109556 25.916832 -2.761555 3.610648 16.440085 -21.748873 -11.676681 6.571026 -33.036047 -6.308496 2.258620 1.678047 -21.502163 6.869543 5.904529 -2.488468 18.654573 -11.216617 -5.694554 -20.887958 20.709589 14.297444 8.567673 52.765041 7.127658 15.151543 -9.732356 49.164192 9.358879 -3.511994 5.451386 7.119846 14.725416 8.877456 -10.421996 
-1.000461 -0.429666 2.167182 177.692552 11.959247 -23.287442 6.281363 5.211321 6.665292 -4.206414 -1.788227 -11.080548 -8.060963 9.022685 13.860011 9.723942 10.013263 -6.467263 -1.381226 -8.002443 22.199286 0.665037 2.373323 7.530011 2.140631 -11.062686 -6.046389 -0.636481 6.119547 -0.963135 -2.852506 6.967177 10.515451 -5.464144 -0.397186 15.651429 -3.823512 2.445240 2.760160 -2.231417 11.321021 25.182547 -2.832723 2.539832 18.306064 -21.983619 -10.954482 5.738381 -34.776958 -7.235032 5.262045 2.960760 -29.523739 9.614863 6.375729 -3.976223 15.596007 -10.191922 -4.434186 -17.860675 21.056498 15.711142 8.952414 49.866756 9.773379 14.408955 -7.748520 45.156422 9.476493 -4.400134 5.596089 7.477005 12.708201 7.838318 -9.169110 
